<svg id="Capa_1" enable-background="new 0 0 512 512" height="512" viewBox="0 0 512 512" width="512" xmlns="http://www.w3.org/2000/svg"><g><g><path d="m305.09 334.128h-98.18l-43.43 92.86 92.52 34.96 92.52-34.96z" fill="#ffee80"/><g fill="#eefaff"><path d="m356 327.918v8.03c0 11.05 8.95 20 20 20s20-8.95 20-20v-17.15z"/><path d="m236 355.948c0 11.05 8.95 20 20 20s20-8.95 20-20v-20.3h-40z"/><path d="m116 335.948c0 11.05 8.95 20 20 20s20-8.95 20-20v-8.03l-40-9.12z"/></g><path d="m373.32 227.348h-234.64c-50.1 10.91-82.68 28.61-82.68 48.6 0 48.057 151.812 60 200 60 48.474 0 200-11.997 200-60 0-19.99-32.58-37.69-82.68-48.6z" fill="#a4caff"/><path d="m462 441.948 20 40h-186l-20 20h-40l-20-20h-186l20-40c26.59 0 59.09-2.9 85.05-8.66 42.744-9.473 47.766-11.34 60.95-11.34 33.14 0 60 17.91 60 40 0-22.09 26.86-40 60-40 15.715 0 23.065 3.433 60.95 11.34 25.96 5.76 58.46 8.66 85.05 8.66z" fill="#eefaff"/><circle cx="421" cy="90.948" fill="#ffee80" r="60.005"/><path d="m373.32 227.348c1.76 8.92 2.68 18.46 2.68 28.6 0 0-59 20-120 20s-120-20-120-20c0-10.14.92-19.68 2.68-28.6 11.62-59.18 59.74-91.4 117.32-91.4s105.7 32.22 117.32 91.4z" fill="#eefaff"/></g><g><path d="m266 175.948c0-5.523-4.478-10-10-10-16.066 0-69.725 4.159-85.654 57.667-1.576 5.293 1.438 10.862 6.731 12.438 5.327 1.585 10.872-1.472 12.438-6.731 11.654-39.146 50.377-43.373 66.485-43.373 5.522-.001 10-4.478 10-10.001z"/><path d="m470.498 41.444c-14.617-14.607-34.409-21.879-54.832-20.293-19.074-13.249-50.041-30.392-65.371-15.059-10.193 10.177-7.491 28.847 7.769 54.186-13.041 26.652-7.905 58.819 13.437 80.172 21.14 21.13 53.245 26.614 80.174 13.427 16.083 9.685 40.858 21.119 54.177 7.781 15.336-15.337-1.807-46.305-15.055-65.378 1.586-20.424-5.69-40.217-20.299-54.836zm-106.042-21.177c1.697-.694 9.65-.467 25.129 8.088-6.615 3.322-12.705 7.711-18.085 13.091-.23.23-.453.467-.68.701-7.002-13.597-6.988-20.352-6.364-21.88zm21.188 106.042c-12.245-12.252-17.026-29.487-13.603-45.666 8.049 10.526 17.44 21.207 27.749 31.517 10.311 10.31 20.992 19.7 31.52 27.751-16.176 3.423-33.416-1.356-45.666-13.602zm66.301 3.917c-12.465-8.659-25.494-19.69-38.013-32.209-12.521-12.52-23.553-25.552-32.21-38.015 1.214-1.538 2.521-3.014 3.92-4.413 19.331-19.334 50.953-19.75 70.715-.002 20.045 20.059 19.028 51.695.002 70.72-1.399 1.398-2.875 2.704-4.414 3.919zm39.737 17.267c-1.53.624-8.287.637-21.881-6.364.233-.227.47-.449.7-.68 5.381-5.381 9.77-11.471 13.092-18.086 8.554 15.476 8.783 23.428 8.089 25.13z"/><path d="m156 105.948c5.523 0 10-4.477 10-10v-10h10c5.523 0 10-4.477 10-10s-4.477-10-10-10h-10v-10c0-5.523-4.477-10-10-10s-10 4.477-10 10v10h-10c-5.523 0-10 4.477-10 10s4.477 10 10 10h10v10c0 5.523 4.477 10 10 10z"/><path d="m76 205.948c5.523 0 10-4.477 10-10v-10h10c5.523 0 10-4.477 10-10s-4.477-10-10-10h-10v-10c0-5.523-4.477-10-10-10s-10 4.477-10 10v10h-10c-5.523 0-10 4.477-10 10s4.477 10 10 10h10v10c0 5.523 4.477 10 10 10z"/><circle cx="133" cy="481.948" r="10"/><path d="m502 471.948h-13.82l-17.236-34.472c-1.694-3.388-5.156-5.528-8.944-5.528-27.711 0-59.47-3.228-82.887-8.423l-23.622-5.235-35.289-75.455c8.899-.89 17.595-1.966 26.03-3.222 1.814 14.818 14.468 26.335 29.768 26.335 16.542 0 30-13.458 30-30v-9.779c39.289-12.746 60-30.034 60-50.221 0-24.019-29.874-44.139-84.3-56.95-14.602-59.361-64.815-93.05-125.7-93.05-60.891 0-111.098 33.695-125.7 93.05-54.426 12.811-84.3 32.931-84.3 56.95 0 20.187 20.711 37.476 60 50.221v9.779c0 16.542 13.458 30 30 30 15.301 0 27.954-11.517 29.768-26.335 8.435 1.255 17.131 2.332 26.031 3.222l-35.29 75.455-23.625 5.236c-23.414 5.194-55.174 8.422-82.884 8.422-3.788 0-7.25 2.14-8.944 5.528l-17.236 34.472h-13.82c-5.523 0-10 4.477-10 10s4.477 10 10 10h78c5.523 0 10-4.477 10-10s-4.477-10-10-10h-41.819l10.024-20.048c27.802-.426 57.651-3.667 81.009-8.849 39.558-8.284 44.64-11.103 58.787-11.103 27.103 0 50 13.738 50 30 0 5.523 4.478 10 10 10s10-4.477 10-10c0-16.262 22.897-30 50-30 14.143 0 19.211 2.815 58.784 11.103 23.36 5.183 53.209 8.423 81.012 8.85l10.024 20.048h-169.821c-2.652 0-5.195 1.054-7.071 2.929l-17.071 17.071h-31.715l-17.071-17.071c-1.875-1.875-4.419-2.929-7.071-2.929h-38c-5.523 0-10 4.477-10 10s4.477 10 10 10h33.858l17.071 17.071c1.875 1.875 4.419 2.929 7.071 2.929h40c2.652 0 5.195-1.054 7.071-2.929l17.071-17.071h201.857c5.522 0 10-4.477 10-10s-4.478-10.001-10-10.001zm-116-136c0 5.514-4.486 10-10 10-5.414 0-9.828-4.329-9.985-9.706 6.942-1.34 13.618-2.805 19.985-4.389zm-130-190c61.21 0 106.702 38.068 109.825 102.698-17.089 5.077-63.1 17.302-109.825 17.302-46.637 0-92.717-12.232-109.825-17.306 3.131-64.683 48.668-102.694 109.825-102.694zm-120 200c-5.514 0-10-4.486-10-10v-4.095c6.368 1.584 13.043 3.05 19.985 4.389-.157 5.378-4.57 9.706-9.985 9.706zm-70-70c0-10.141 18.906-24.48 60.706-35.453-.468 5.045-.706 10.207-.706 15.453 0 4.286 2.731 8.095 6.79 9.471 2.473.838 61.274 20.529 123.21 20.529s120.737-19.691 123.21-20.529c4.06-1.376 6.79-5.185 6.79-9.471 0-5.246-.238-10.408-.706-15.453 41.8 10.973 60.706 25.312 60.706 35.453 0 35.986-136.648 49.999-190 49.999-38.207 0-190-11.969-190-49.999zm200 69.926v10.074c0 5.514-4.486 10-10 10s-10-4.486-10-10v-10.074c3.322.049 16.679.049 20 0zm50 66.074c-25.757 0-47.851 9.457-60 23.881-12.148-14.424-34.243-23.881-60-23.881-5.076 0-10.089.385-14.975 1.131l32.037-68.5c4.312.278 8.63.506 12.938.698v10.671c0 16.542 13.458 30 30 30s30-13.458 30-30v-10.671c4.309-.191 8.626-.42 12.938-.698l32.037 68.5c-4.887-.746-9.9-1.131-14.975-1.131z"/></g></g></svg>