<svg id="Capa_1" enable-background="new 0 0 512 512" height="512" viewBox="0 0 512 512" width="512" xmlns="http://www.w3.org/2000/svg"><g><g><g fill="#9c6750"><path d="m369 232c0 20.987-19.699 34-44 34s-44-13.013-44-34 23-42 44-42 44 21.013 44 42z"/><path d="m263 317s37-64 68-64 80 49 80 49z"/><path d="m297 205c0 7.732-7.163 14-16 14s-16-4.268-16-12 7.163-16 16-16c7 0 16 6.268 16 14z"/><path d="m382 193c0 9.941-8.954 16-20 16s-20-8.059-20-18c0-7 8.954-18 20-18s20 13 20 20z"/></g><g fill="#844f3e"><path d="m366 274 9-7 2 2-7 8z"/><path d="m301 280 12 5-2 3-12-4z"/><path d="m347 288-4 9 5 1 1-8z"/><path d="m290 237h-12v-3l12-1z"/><path d="m327 254 5-9 3 2-5 8z"/><path d="m312 202 3 11-3 1-4-10z"/><path d="m371 202 2 7 4-1-3-7z"/><path d="m361 179-5 7 2 1 7-6z"/><path d="m286 190-2 8h2l3-8z"/><path d="m350 219 10 2-1 4-9-4z"/><path d="m280 209h-8v-3l8 1z"/><path d="m273 294 8 4-2 2-7-5z"/></g></g><g><g><path d="m101 265 115-4-3-30-110 8z" fill="#d68034"/><g fill="#b66624"><path d="m205 245-12-6-10 8 14 4z"/><path d="m175 241-63 3v6l63-5z"/><path d="m175 249-63 5v5l63-6z"/></g></g><g><path d="m87 289 126-5 20-1-4-27-141 9z" fill="#f3d544"/><g fill="#d68034"><path d="m94 277 13-8 17 7-19 7z"/><path d="m224 270-19-6-10 7 14 7z"/><path d="m188 266-3 5 5 5-58 3 4-5-6-4z"/></g></g><g><path d="m50 314h166l-3-30-160 5z" fill="#9c6750"/><g fill="#844f3e"><path d="m63 294-3 14h8v-14z"/><path d="m203 290h-7v18h10z"/><path d="m78 301 52-9 58 7-50 9z"/></g></g></g><g><g><path d="m486 35-20 260-30 4 4 34 41-20 19-278z" fill="#844f3e"/><path d="m472 46 40-3-8-21 5-22-40 7 11 20z" fill="#9c6750"/><g fill="#844f3e"><path d="m497 33 10.894-.778-2.183-5.732-11.711 2.51z"/><path d="m493 16 12.531-.737 1.525-6.711-13.056 2.448z"/><path d="m486 30-7.506.577-2.143 5.088 8.649-.665z"/><path d="m475.775 19.318 9.225-1.318-2-5-9.865 1.518z"/></g></g><g><path d="m28 436 200-14 182 4 18-106-413 9z" fill="#e8a543"/><path d="m0 308v50l448-12-6-60-212 21z" fill="#f3d544"/></g><g><path d="m422 448c0 35.346-30.654 64-66 64s-62-28.654-62-64 35-64 64-64c35.346 0 64 35 64 64z" fill="#9c6750"/><ellipse cx="358" cy="448" fill="#d8d1be" rx="42" ry="41"/><path d="m378 448c0 9-9.954 20-21 20s-19-8.954-19-20c0-8 8.954-20 20-20 8 0 20 8.954 20 20z" fill="#f4efe3"/></g><g><path d="m147 448c0 35.346-29 64-60 64-35.346 0-68-28.654-68-64s35-64 64-64c28 0 64 28.654 64 64z" fill="#9c6750"/><path d="m124 448c0 22.644-18.356 42-41 42-28 0-41-19.356-41-42s26-43 41-43c22.644 0 41 17 41 43z" fill="#d8d1be"/><path d="m105 448c0 9-10.85 22-23 22-16 0-21-9.85-21-22s13-22 22-22 22 9.85 22 22z" fill="#f4efe3"/></g></g><g><circle cx="161" cy="480" fill="#d68034" r="32"/><g fill="#b66624"><path d="m192.373 474.719c-.309-1.355-.73-2.72-1.253-4.08-7.309 6.717-21.003 18.361-28.12 18.361-7.653 0-25.837-7.024-33.956-10.323-.023.439-.044.879-.044 1.323 0 .915.048 1.819.123 2.715 6.907 4.321 21.216 12.285 32.877 12.285 11.153 0 23.756-12.627 30.373-20.281z"/><path d="m163 466c3.059 0 10.232-6.735 15.343-11.966-1.104-.811-2.249-1.563-3.441-2.234-3.998 4.221-9.444 9.2-12.902 9.2-3.641 0-13.535-2.576-20.758-4.603-1.223 1.033-2.396 2.145-3.498 3.329 7.957 2.351 21.754 6.274 25.256 6.274z"/><path d="m160 481c11.496 0 22.475-10.84 27.746-16.944-.795-1.229-1.671-2.425-2.618-3.575-4.853 5.482-15.223 15.519-26.128 15.519-5.174 0-19.078-6.551-25.987-9.972-.758 1.288-1.42 2.625-1.983 4.002 7.406 3.657 22.97 10.97 28.97 10.97z"/><path d="m189.852 492.961c.785-1.57 1.447-3.204 1.953-4.895-8.39 5.309-23.189 13.934-30.805 13.934-5.077 0-20.667-5.258-28.854-8.148.629 1.307 1.348 2.562 2.142 3.763 8.027 3.847 20.49 9.385 25.712 9.385 7.486 0 21.385-8.409 29.852-14.039z"/></g></g></g></svg>